<svg xmlns="http://www.w3.org/2000/svg" width="111.156" height="111.372" data-name="google earth" viewBox="0 0 111.156 111.372"><path fill="#f5f5f5" d="M111.156,55.686A55.578,55.578,0,1,1,55.578,0a55.631,55.631,0,0,1,55.578,55.686Z" data-name="Path 230"/><path fill="#c6e2ff" d="M46.647,30.9a48.534,48.534,0,0,0-8.6.871,55.67,55.67,0,1,0,73.11,52.826,56.252,56.252,0,0,0-1.964-14.608c-4.316.871-9.23.954-13.057-2.892-8.575-8.607-21.575-36.3-49.488-36.2Z" data-name="Path 231" transform="translate(0 -28.931)"/><path fill="#98c3ff" d="M36.488,171.8a39.067,39.067,0,0,0-21.658,6.884,55.625,55.625,0,1,0,96.326,37.855c0-.439-.025-.871-.025-1.284-7.075,5.817-19.42,5.543-26.6-1.805-13.356-14.061-20.7-35.694-41.923-41.021a28.994,28.994,0,0,0-6.115-.629Z" data-name="Path 232" transform="translate(0 -160.879)"/><path fill="#4f8ef5" d="M23.813,510.4c-12.777,0-21.493,7.781-23.7,19.935C.057,531.429,0,532.522,0,533.615A55.573,55.573,0,0,0,109.815,545.82C101.729,559.583,84.553,563.41,68,549.374c-19.8-18.982-20.59-38.128-44.187-38.974Z" data-name="Path 233" transform="translate(0 -477.955)"/><path fill="#2d65dc" d="M87.4,951.921c-7.209.5-12.618,6.719-12.345,17.7a55.485,55.485,0,0,0,94.628,11.69c-9.942,8.137-30.176,12.618-49.05-2.46-13.871-12.86-18.708-27.252-33.234-26.928Z" data-name="Path 234" transform="translate(-70.274 -891.403)"/></svg>